<svg xmlns="http://www.w3.org/2000/svg" width="60" height="60" viewBox="0 0 60 60"><defs><style>.a{fill:#fff;}</style></defs><path class="a" d="M50.983,28.238H47.446c-.2,0-.288,0-.317-.26a17.657,17.657,0,0,0-15.505-15.51,16.894,16.894,0,0,0-9.553,1.555,17.426,17.426,0,0,0-9.663,11.815,16.541,16.541,0,0,0-.276,7.012,17.653,17.653,0,0,0,27.458,11.7.581.581,0,0,0,.089-.1c-.995-.67-1.973-1.328-2.944-1.994a.327.327,0,0,0-.353,0A14.208,14.208,0,0,1,17.458,22.578a13.987,13.987,0,0,1,7.223-5.932,13.8,13.8,0,0,1,7.219-.678A14.21,14.21,0,0,1,43.674,28.015c.041.276-.146.191-.264.191H39.87c-.244,0-.353.024-.195.3l5.741,9.886a.927.927,0,0,0,.093.118c.5-.853.995-1.681,1.474-2.513q2.127-3.654,4.243-7.353C51.445,28.25,51.449,28.242,50.983,28.238ZM18.6,32.156c1.19.073,2.371.207,3.557.317,1.563.146,3.126.3,4.689.447a.715.715,0,0,1,.479.219,3.656,3.656,0,0,0,5.156-5.185,1.218,1.218,0,0,1-.378-.812q-.256-3.593-.54-7.166c-.028-.406-.053-.812-.077-1.218a.812.812,0,0,0-.755-.812,10.479,10.479,0,0,0-1.336,0,.84.84,0,0,0-.832.865c-.142,1.855-.3,3.707-.447,5.558-.069.889-.134,1.774-.183,2.663a1.218,1.218,0,0,1-.325.7,2.414,2.414,0,0,1-1.977.784c-2.436.207-4.848.43-7.272.65a.934.934,0,0,0-.978,1.072c0,.146,0,.288,0,.434h0v.235C17.333,31.9,17.824,32.111,18.6,32.156ZM30,0A30,30,0,1,0,60,30,30,30,0,0,0,30,0Zm-.041,55.063a24.961,24.961,0,1,1,17.785-7.291,25.063,25.063,0,0,1-17.785,7.291Z"/></svg>