<svg xmlns="http://www.w3.org/2000/svg" width="97" height="97" viewBox="0 0 97 97"><defs><style>.a{fill:#fff;}</style></defs><path class="a" d="M51.5,32.734H56c.453,0,.459-.007.459-.459V22.612c0-.433-.013-.446-.44-.446H51.487c-.433,0-.44.007-.44.446v9.662C51.047,32.734,51.047,32.734,51.5,32.734Zm23.282-.709a6.867,6.867,0,0,0-2.015-4.687,7.5,7.5,0,0,0-4.9-2.488c-.82-.072-1.641-.085-2.461-.092-2.015-.013-4.037-.007-6.052-.013-.3,0-.407.092-.4.4.033,1.536.046,3.072.059,4.6,0,.276.112.354.374.361,1.306.013,2.606.033,3.912.059,1.142.02,2.278.039,3.42.072a8.677,8.677,0,0,1,.919.079,2.121,2.121,0,0,1,1.779,1.693,7.4,7.4,0,0,1,.118,1.372c.013,1.339.007,2.678.007,4.01,0,.512,0,.512-.532.512H28.08c-.118,0-.243-.007-.361,0a.217.217,0,0,1-.256-.256c.026-1.8-.072-3.6.072-5.389a2.173,2.173,0,0,1,2-1.969c.932-.02,1.858-.1,2.79-.112,1.753-.039,3.505-.053,5.264-.066.3,0,.4-.105.4-.4.007-1.49.033-2.98.053-4.47.007-.466-.013-.486-.479-.486q-4.047.03-8.093.072a5.784,5.784,0,0,0-1.208.144A8,8,0,0,0,23.7,27.962a6.721,6.721,0,0,0-1.5,3.623c-.046.591-.039,1.181-.039,1.772q0,17.26,0,34.513a4.326,4.326,0,0,0,.289,1.628,8.367,8.367,0,0,0,4.824,4.969,3.418,3.418,0,0,0,1.28.387q19.819-.01,39.645-.007a1.741,1.741,0,0,0,.453-.046,8.26,8.26,0,0,0,5.461-4.352,6.287,6.287,0,0,0,.722-2.96c-.02-10.187,0-20.374,0-30.561Q74.844,34.467,74.782,32.025ZM69.53,66.478a3.264,3.264,0,0,1-.387,1.805,2.475,2.475,0,0,1-2.212,1.247c-.65-.007-1.293.007-1.943.013-5.658.053-11.316.085-16.974.053-4.056,0-8.113.026-12.169-.013-1.917-.02-3.84-.02-5.756-.053a2.475,2.475,0,0,1-2.566-2.389c-.059-.689-.079-1.378-.079-2.068q0-10.614.013-21.221c0-.538.007-.538.545-.538q4.8-.01,9.6-.026c2.061-.007,4.122-.046,6.183-.033,8.441.066,16.889.033,25.33.046.3,0,.42.072.42.4C69.53,51.3,69.583,58.891,69.53,66.478ZM40.925,32.74c1.523-.013,3.046-.007,4.568-.007.446,0,.446-.007.446-.466v-4.8c0-1.634-.007-3.262.007-4.9,0-.315-.105-.414-.42-.414-1.536.013-3.065.013-4.6,0-.3,0-.407.092-.407.394q.01,4.893,0,9.793C40.525,32.648,40.63,32.74,40.925,32.74ZM48.5,0A48.5,48.5,0,1,0,97,48.5,48.5,48.5,0,0,0,48.5,0Zm.341,89.018h-.407a40.4,40.4,0,1,1,.407,0Zm11.3-42.074c-.335-.335-.335-.335-.663-.007Q53.269,53.15,47.063,59.37c-.223.223-.348.236-.578.007q-1.615-1.644-3.256-3.256c-.591-.584-1.2-1.155-1.805-1.726a.541.541,0,0,0-.3-.184.433.433,0,0,0-.249.158c-1.142,1.017-2.173,2.14-3.269,3.19-.223.21-.184.328.013.525q4.44,4.421,8.861,8.861c.217.217.335.21.551,0q8.133-8.152,16.278-16.278c.217-.217.21-.341-.007-.551C62.251,49.058,61.2,48,60.144,46.944Z"/></svg>