<svg xmlns="http://www.w3.org/2000/svg" width="78.08" height="78.08" viewBox="0 0 78.08 78.08"><defs><style>.a{fill:#349ed6;}</style></defs><path class="a" d="M66.345,36.747h-4.6c-.264,0-.375,0-.412-.338A22.978,22.978,0,0,0,41.153,16.226a21.985,21.985,0,0,0-12.432,2.024A22.677,22.677,0,0,0,16.146,33.624a21.525,21.525,0,0,0-.359,9.125A22.972,22.972,0,0,0,51.52,57.976a.756.756,0,0,0,.116-.127c-1.294-.872-2.568-1.728-3.831-2.594a.425.425,0,0,0-.46,0A18.489,18.489,0,0,1,22.719,29.382a18.2,18.2,0,0,1,9.4-7.719,17.964,17.964,0,0,1,9.394-.882A18.492,18.492,0,0,1,56.835,36.456c.053.359-.19.248-.343.248H51.884c-.317,0-.46.032-.254.386L59.1,49.956a1.205,1.205,0,0,0,.122.153c.65-1.11,1.294-2.187,1.918-3.271q2.769-4.755,5.521-9.568C66.948,36.763,66.953,36.752,66.345,36.747ZM24.2,41.846c1.548.1,3.086.269,4.628.412,2.034.19,4.068.4,6.1.581a.93.93,0,0,1,.623.285,4.758,4.758,0,1,0,6.71-6.747,1.585,1.585,0,0,1-.491-1.057q-.333-4.676-.7-9.325c-.037-.528-.069-1.057-.1-1.585a1.057,1.057,0,0,0-.983-1.057,13.637,13.637,0,0,0-1.738,0,1.094,1.094,0,0,0-1.083,1.125c-.185,2.415-.391,4.824-.581,7.233-.09,1.157-.174,2.309-.238,3.466a1.585,1.585,0,0,1-.423.914,3.142,3.142,0,0,1-2.573,1.02c-3.17.269-6.309.56-9.463.845a1.215,1.215,0,0,0-1.273,1.395c0,.19,0,.375,0,.565h0v.306C22.555,41.507,23.195,41.787,24.2,41.846ZM39.04,0A39.04,39.04,0,1,0,78.08,39.04,39.04,39.04,0,0,0,39.04,0Zm-.053,71.655a32.483,32.483,0,1,1,23.144-9.487,32.615,32.615,0,0,1-23.144,9.487Z"/></svg>