<svg xmlns="http://www.w3.org/2000/svg" width="60" height="60" viewBox="0 0 60 60"><defs><style>.a{fill:#fff;}</style></defs><path class="a" d="M28.8,21.384c.13-2.521-2.14-7.012-5.627-6.248-2.68.585-3.605,4.1-2.931,6.866C21.807,28.421,28.786,28.128,28.8,21.384Zm5.5,4.872c3.654.812,6.09-3.991,5.595-7.462-.918-6.378-7.942-5.116-8.672,1.506-.272,2.469.715,5.428,3.078,5.96ZM21.307,31.738c1.246-5.863-6.188-10.581-7.564-4.158v1.583c1.181,6.041,6.683,6.728,7.564,2.578Zm19.736-6.5c-3.033,2.253-3.455,7.637-.609,8.9,2.525,1.125,5.635-1.766,5.818-5.794.081-3.179-2.529-5.112-5.209-3.122ZM37.8,35.063c-3.471-4.409-2.663-4.206-3.987-5.887-1.9-2.436-4.949-2.2-6.935-.321s-2.818,4.466-6.167,7.1c-4.6,3.6-4.06,9.744,2.054,9.062,2.4-.268,4.612-1.117,6.931-1.088,3.654.049,7.82,1.9,10.118.9a3.831,3.831,0,0,0,1.977-3.577c-.089-3.2-2.789-4.71-3.971-6.2ZM30,0A30,30,0,1,0,60,30,30,30,0,0,0,30,0Zm-.045,55.063a24.961,24.961,0,1,1,17.788-7.289A25.063,25.063,0,0,1,29.955,55.063Z"/></svg>