<svg xmlns="http://www.w3.org/2000/svg" width="97" height="97" viewBox="0 0 97 97"><defs><style>.a{fill:#fff;}</style></defs><path class="a" d="M46.564,34.572c.21-4.076-3.459-11.336-9.1-10.1-4.332.945-5.829,6.629-4.739,11.1C35.254,45.947,46.537,45.474,46.564,34.572Zm8.887,7.877C61.359,43.761,65.3,36,64.5,30.384c-1.483-10.312-12.839-8.27-14.02,2.435-.44,3.991,1.155,8.776,4.975,9.636Zm-21,8.861c2.015-9.478-10-17.105-12.228-6.721v2.56c1.91,9.767,10.8,10.876,12.228,4.168Zm31.907-10.5c-4.9,3.643-5.586,12.347-.985,14.394,4.083,1.818,9.111-2.855,9.406-9.367.131-5.139-4.089-8.264-8.421-5.048ZM61.1,56.685c-5.612-7.128-4.306-6.8-6.446-9.518-3.072-3.938-8-3.551-11.211-.519s-4.555,7.22-9.97,11.474c-7.43,5.822-6.564,15.753,3.321,14.65,3.873-.433,7.456-1.805,11.2-1.759,5.907.079,12.642,3.065,16.357,1.457,2.061-.886,3.282-3.518,3.2-5.783-.144-5.172-4.509-7.614-6.419-10.023ZM48.5,0A48.5,48.5,0,1,0,97,48.5,48.5,48.5,0,0,0,48.5,0Zm-.072,89.018A40.354,40.354,0,1,1,77.184,77.234,40.518,40.518,0,0,1,48.428,89.018Z"/></svg>