<svg xmlns="http://www.w3.org/2000/svg" width="78.08" height="78.08" viewBox="0 0 78.08 78.08"><defs><style>.a{fill:#3c8ad5;}</style></defs><path class="a" d="M37.481,27.828C37.65,24.547,34.7,18.7,30.158,19.7c-3.487.761-4.692,5.336-3.815,8.934C28.378,36.985,37.46,36.6,37.481,27.828Zm7.154,6.34c4.755,1.057,7.925-5.194,7.281-9.711-1.194-8.3-10.335-6.657-11.286,1.96-.354,3.212.93,7.064,4,7.756ZM27.728,41.3c1.622-7.629-8.052-13.769-9.843-5.41v2.061c1.538,7.862,8.7,8.755,9.843,3.355Zm25.683-8.454c-3.947,2.932-4.5,9.938-.793,11.587,3.286,1.464,7.334-2.3,7.571-7.54.106-4.137-3.292-6.652-6.779-4.063ZM49.184,45.629c-4.517-5.738-3.466-5.474-5.188-7.661-2.473-3.17-6.441-2.858-9.024-.417s-3.667,5.812-8.026,9.236c-5.981,4.686-5.284,12.68,2.673,11.793,3.117-.349,6-1.453,9.019-1.416,4.755.063,10.176,2.467,13.167,1.173a4.985,4.985,0,0,0,2.573-4.655c-.116-4.163-3.63-6.129-5.167-8.068ZM39.04,0A39.04,39.04,0,1,0,78.08,39.04,39.04,39.04,0,0,0,39.04,0Zm-.058,71.655A32.483,32.483,0,1,1,62.129,62.17,32.615,32.615,0,0,1,38.982,71.655Z"/></svg>