<svg xmlns="http://www.w3.org/2000/svg" width="30.2" height="25.455" viewBox="0 0 30.2 25.455"><defs><style>.a{fill:#fff;}</style></defs><path class="a" d="M30.125,25.464a1.09,1.09,0,0,1-.332-.39,16.548,16.548,0,0,0-3.021-3.332A14.625,14.625,0,0,0,21.734,19a21.806,21.806,0,0,0-5.9-.9c-.716-.022-.716-.014-.716.694,0,1.279-.014,2.551.007,3.831a1.85,1.85,0,0,1-1.193,1.85,1.791,1.791,0,0,1-2.067-.4c-1.026-.983-2.024-1.988-3.043-2.985Q6.13,18.446,3.434,15.8c-1.1-1.084-2.183-2.175-3.281-3.252-.246-.246-.065-.369.094-.528Q3.315,8.985,6.39,5.957C8.19,4.179,9.982,2.4,11.8.637a1.869,1.869,0,0,1,2.667-.13,1.733,1.733,0,0,1,.658,1.388c-.007,1.46.014,2.913-.007,4.373-.007.376.123.506.47.549A15.26,15.26,0,0,1,19.653,7.9,17.062,17.062,0,0,1,30.125,21.764a27.455,27.455,0,0,1,.094,3.534C30.2,25.356,30.212,25.421,30.125,25.464Z" transform="translate(-0.032 -0.009)"/></svg>