<svg xmlns="http://www.w3.org/2000/svg" width="30.2" height="30.029" viewBox="0 0 30.2 30.029"><defs><style>.a{fill:#fff;}</style></defs><path class="a" d="M28.267,2.286c-1.1-1.039-1.924-2.467-3.849-2.227C23.191.345,22.5,1.373,21.62,2.2c-1.633,1.8-1.987.474,2.05,4.631.937.891,1.77,1.856,2.752,2.73.377.034.931-.845,1.473-1.3.788-.885,1.913-1.588,2.279-2.73C30.374,4.022,29.364,3.394,28.267,2.286ZM7.447,28.087,2.084,22.724c-.782-.7-.251-1.416-2.084,6.544.023,1.53,1.93.44,3.957.074,1.188-.291,2.336-.56,3.563-.862C7.829,28.418,7.6,28.252,7.447,28.087Zm17.183-17.2c-1.85-1.833-3.649-3.638-5.5-5.488-.428-.514-.457-.217-.805.08C13.688,10.11,9.1,14.707,4.443,19.35c-1.365,1.787-2.815-.268,4.94,7.372,4.894-4.757,9.611-9.611,14.482-14.436C24.1,11.914,25.286,11.326,24.63,10.886Z" transform="translate(0 -0.033)"/></svg>