<svg xmlns="http://www.w3.org/2000/svg" width="78.08" height="78.08" viewBox="0 0 78.08 78.08"><defs><style>.a{fill:#707070;}</style></defs><path class="a" d="M26.6,33.693a6.229,6.229,0,1,0-6.192-6.256A6.293,6.293,0,0,0,26.6,33.693Zm3.408,2.959a8.422,8.422,0,0,1,.079-1.162,19.28,19.28,0,0,0-14.408,3.234c-1.8,1.268-1.427,2.4-1.427,8.263,0,.676-1.421.655,10.372.613a6.013,6.013,0,0,1,1.844-1.955,21.974,21.974,0,0,1,5.844-2.932,8.982,8.982,0,0,1-2.3-6.06Zm21.43-2.959a6.229,6.229,0,1,0-6.192-6.256,6.293,6.293,0,0,0,6.192,6.256ZM39.019,42.918a6.229,6.229,0,1,0-6.192-6.256A6.3,6.3,0,0,0,39.019,42.918ZM39.04,0A39.04,39.04,0,1,0,78.08,39.04,39.04,39.04,0,0,0,39.04,0Zm-.058,71.655A32.483,32.483,0,1,1,62.129,62.17,32.615,32.615,0,0,1,38.982,71.655ZM63.857,41.381c0-3.239-7.6-7.4-15.824-5.812a9.32,9.32,0,0,1,.074,1.215,9.035,9.035,0,0,1-2.23,5.859c3.366,1.057,6.071,2.848,7.434,4.967H63.35c.666-.058.518.666.507-6.229ZM28.1,47.948c-1.8,1.273-1.421,2.4-1.421,8.269,0,.872-2.367.581,24.267.576.655,0,.528.708.491-6.187C51.43,46.379,38.5,40.625,28.1,47.948Z"/></svg>