<svg xmlns="http://www.w3.org/2000/svg" width="30.202" height="30.152" viewBox="0 0 30.202 30.152"><defs><style>.a{fill:#fff;}</style></defs><path class="a" d="M11.686,30.165a2.437,2.437,0,0,1-1.559-.7c-3.118-3.118-6.27-6.237-9.389-9.389A2,2,0,0,1,.7,17.027C1.667,16,2.662,15.037,3.658,14.041L16.4,1.3l.5-.5a2.106,2.106,0,0,1,3.318.033c2.488,2.455,4.943,4.943,7.431,7.431l1.626,1.626c1.261,1.261,1.261,2.289,0,3.55l-5.64,5.64c-3.417,3.384-6.768,6.735-10.152,10.118A2.623,2.623,0,0,1,11.686,30.165ZM9.032,11.885c-.1.1-.232.2-.332.3L3.094,17.79c-.6.6-.6.863,0,1.493l7.829,7.829c.6.6.863.6,1.427,0,1.891-1.891,3.749-3.782,5.673-5.64.3-.3.3-.5,0-.8C15.169,17.857,12.316,15,9.5,12.15,9.364,12.051,9.264,11.885,9.032,11.885Z" transform="translate(-0.012 -0.012)"/></svg>