<svg xmlns="http://www.w3.org/2000/svg" width="28.441" height="26.685" viewBox="0 0 28.441 26.685"><defs><style>.a{fill:#fff;}</style></defs><path class="a" d="M41.348,35.885c.114-2.206-1.872-6.134-4.923-5.466-2.344.511-3.154,3.587-2.564,6.006C35.228,42.041,41.334,41.785,41.348,35.885Zm4.809,4.262c3.2.71,5.328-3.491,4.894-6.528-.8-5.58-6.947-4.475-7.587,1.318-.238,2.16.625,4.749,2.692,5.214ZM34.791,44.943c1.09-5.129-5.413-9.256-6.617-3.637v1.385c1.034,5.285,5.846,5.885,6.617,2.255ZM52.057,39.26c-2.653,1.971-3.023,6.681-.533,7.789,2.209.984,4.93-1.545,5.09-5.068.071-2.781-2.213-4.472-4.557-2.731ZM45.727,42.7a3.967,3.967,0,0,0-6.067-.281c-1.737,1.641-2.465,3.907-5.4,6.209-4.021,3.15-3.552,8.524,1.8,7.928,2.1-.234,4.035-.977,6.063-.952,3.2.043,6.841,1.659,8.851.789a3.351,3.351,0,0,0,1.73-3.129C52.628,50.466,46.885,44.172,45.727,42.7Z" transform="translate(-28.174 -29.965)"/></svg>