<svg xmlns="http://www.w3.org/2000/svg" width="30.2" height="30.21" viewBox="0 0 30.2 30.21"><defs><style>.a{fill:#fff;}</style></defs><path class="a" d="M26.416,15.657H29c.26,0,.263,0,.263-.263V9.855c0-.248-.008-.256-.252-.256h-2.6c-.248,0-.252,0-.252.256v5.539C26.156,15.657,26.156,15.657,26.416,15.657Zm13.348-.406a3.937,3.937,0,0,0-1.155-2.687A4.3,4.3,0,0,0,35.8,11.138c-.47-.041-.941-.049-1.411-.053-1.155-.008-2.314,0-3.47-.008-.169,0-.233.053-.23.23.019.881.026,1.761.034,2.638,0,.158.064.2.215.207.749.008,1.494.019,2.243.034.655.011,1.306.023,1.961.041a4.975,4.975,0,0,1,.527.045,1.216,1.216,0,0,1,1.02.971,4.243,4.243,0,0,1,.068.786c.008.768,0,1.535,0,2.3,0,.294,0,.294-.3.294H12.989c-.068,0-.139,0-.207,0a.124.124,0,0,1-.147-.147c.015-1.031-.041-2.062.041-3.09a1.246,1.246,0,0,1,1.144-1.129c.534-.011,1.065-.056,1.6-.064,1-.023,2.01-.03,3.018-.038.173,0,.23-.06.23-.23,0-.854.019-1.708.03-2.563,0-.267-.008-.278-.275-.278q-2.32.017-4.64.041a3.316,3.316,0,0,0-.692.083,4.586,4.586,0,0,0-2.612,1.712A3.853,3.853,0,0,0,9.618,15c-.026.339-.023.677-.023,1.016q0,9.9,0,19.787a2.48,2.48,0,0,0,.166.933,4.8,4.8,0,0,0,2.766,2.849,1.96,1.96,0,0,0,.734.222q11.363-.006,22.729,0a1,1,0,0,0,.26-.026A4.736,4.736,0,0,0,39.38,37.28a3.6,3.6,0,0,0,.414-1.7c-.011-5.84,0-11.681,0-17.521Q39.8,16.651,39.764,15.251ZM36.753,35a1.871,1.871,0,0,1-.222,1.035,1.419,1.419,0,0,1-1.268.715c-.373,0-.741,0-1.114.008-3.244.03-6.488.049-9.731.03-2.326,0-4.651.015-6.977-.008-1.1-.011-2.2-.011-3.3-.03a1.419,1.419,0,0,1-1.471-1.37c-.034-.4-.045-.79-.045-1.185q0-6.085.008-12.166c0-.309,0-.309.312-.309q2.755-.006,5.505-.015c1.182,0,2.363-.026,3.545-.019,4.839.038,9.683.019,14.522.026.173,0,.241.041.241.23C36.753,26.3,36.784,30.653,36.753,35ZM22.973,15.657c.256,0,.256,0,.256-.267V12.639c0-.937,0-1.87,0-2.807,0-.181-.06-.237-.241-.237a11.261,11.261,0,0,0-2.871.226q.006,2.805,0,5.615A10.848,10.848,0,0,0,22.973,15.657Zm8.4,8.147c-.192-.192-.192-.192-.38,0q-3.562,3.562-7.12,7.127c-.128.128-.2.135-.331,0q-.926-.943-1.867-1.867c-.339-.335-.689-.662-1.035-.99a.31.31,0,0,0-.169-.105.249.249,0,0,0-.143.09c-.655.583-1.246,1.227-1.874,1.829-.128.12-.105.188.008.3q2.546,2.534,5.08,5.08c.124.124.192.12.316,0Q28.52,30.6,33.19,25.938c.124-.124.12-.2,0-.316C32.58,25.016,31.978,24.41,31.372,23.8Z" transform="translate(-9.595 -9.595)"/></svg>