<svg xmlns="http://www.w3.org/2000/svg" width="78.077" height="78.077" viewBox="0 0 78.077 78.077"><defs><style>.a{fill:#ed8f32;}</style></defs><path class="a" d="M58.354,53.362a9.351,9.351,0,0,0-1.189.211c-.7.137-1.416.2-1.633-.687-.2-.771.417-1.025.993-1.284.745-.338,2.061-.354,1.791-1.506-.333-1.411-1.532-.5-2.377-.465a1.3,1.3,0,0,0-.2.026c-.65.042-1.294-.048-1.405-.8-.148-1.057.766-1.094,1.437-1.342.75-.275,1.743-.454,1.374-1.585-.291-.882-1.057-.528-1.733-.38-.829.19-1.849.708-2.15-.592-.259-1.131.824-1.173,1.543-1.463s1.654-.365,1.353-1.384-1.141-.7-1.876-.528c-.84.217-1.865.671-2.23-.528s.851-1.125,1.516-1.453,1.765-.528,1.363-1.585-1.337-.65-2.113-.433q-4.184,1.178-8.342,2.425c-4.755,1.416-4.406,1.268-3.059,5.632.645,2.082-.1,3.033-1.918,3.624a72.931,72.931,0,0,1-10.281,2.082c-2.89.47-5.949.328-8.49,2.214-1.242.925-2.045,2.061-1.585,3.614s1.765,1.939,3.17,2.113a10.206,10.206,0,0,0,5.431-1.31c3.7-1.664,7.317-3.424,11.148-4.755,3.619-1.236,4.507-.771,5.516,2.816a13.774,13.774,0,0,0,.5,1.553,1.562,1.562,0,0,0,1.923,1.094c4.021-1.125,8.02-2.319,12.02-3.508a.93.93,0,0,0,.74-1.057C59.475,53.43,58.925,53.362,58.354,53.362ZM39.039,0A39.039,39.039,0,1,0,78.077,39.039,39.039,39.039,0,0,0,39.039,0ZM38.98,71.653a32.482,32.482,0,1,1,23.147-9.485A32.614,32.614,0,0,1,38.98,71.653Zm19.21-42.594c-3.973-.053-7.925.143-11.909.433-.671,0-1.353.042-2.018,0s-1.585.317-1.791-.46.729-1.057,1.279-1.379c3.418-2.029,6.868-4,10.281-6.039,1-.6,2.953-1.057,2.642-2.055-.38-1.226-2.282-.682-3.476-.586-6.588.528-12.617,2.261-16.289,8.453a1.936,1.936,0,0,1-2.536,1c-.893-.3-1.823-.491-2.742-.7a2.177,2.177,0,0,1-1.886-2.013c-.528-3.276-3.292-5.114-6.641-4.6s-4.85,2.314-4.612,5.865c.18,2.642,2.436,4.512,5.495,4.491a7.925,7.925,0,0,0,3.7-.977,6.1,6.1,0,0,1,5.283.824c.264.275.423.608.2.893-1.025,1.353-1.643,3.17-3.735,3.36a9.362,9.362,0,0,0-3.672,1.057c-2.531,1.374-3.73,4.544-2.642,6.868a5.128,5.128,0,0,0,6.794,2.642c2.864-1.057,4.887-4.227,3.82-6.816a3.131,3.131,0,0,1,1.057-4.179,11.1,11.1,0,0,0,1.39-1.469,1.6,1.6,0,0,1,2.314-.476c4.517,2.9,9.182,1.865,13.858.56a17.155,17.155,0,0,0,6.483-3.17c.354-.291.9-.623.771-1.1C59.4,28.8,58.687,29.058,58.191,29.058Zm-34.416.782a3.614,3.614,0,0,1-3.7-3.672c.026-2.245,1.427-3.471,4-3.5,2.3,0,4.095,1.516,4.105,3.529C28.192,28.35,26.306,29.9,23.775,29.84Zm3.947,15.026a3.466,3.466,0,0,1-3.328-3.17c-.111-2.113,2.113-4.274,4.486-4.343a3.381,3.381,0,0,1,3.439,3.26c.026,2.134-2.2,4.221-4.612,4.253Z"/></svg>