<svg xmlns="http://www.w3.org/2000/svg" width="97" height="97" viewBox="0 0 97 97"><defs><style>.a{fill:#fff;}</style></defs><path class="a" d="M48.5,0A48.5,48.5,0,1,0,97,48.5,48.5,48.5,0,0,0,48.5,0Zm.341,89.018h-.407a40.4,40.4,0,1,1,.407,0Zm30.87-43.754A38.765,38.765,0,0,0,59.3,29.531,33.276,33.276,0,0,0,45,28c-8.756.919-16.075,4.785-22.369,10.784a36.792,36.792,0,0,0-5.7,7.082,4.954,4.954,0,0,0,.033,5.7,38.786,38.786,0,0,0,20.794,16.3A30.013,30.013,0,0,0,46.5,69.5c.164.007.335.053.5.072h3.676a51.757,51.757,0,0,0,5.31-.781,38.215,38.215,0,0,0,15.845-7.831A37.782,37.782,0,0,0,80.1,51.539a8.179,8.179,0,0,0,.86-1.963V47.8A9.057,9.057,0,0,0,79.711,45.264ZM37.643,43.512a11.034,11.034,0,0,1,8.723-10.174,10.13,10.13,0,0,1,2.14-.171,1.641,1.641,0,0,1,.335,3.249c-.7.158-1.424.092-2.133.249a7.764,7.764,0,0,0-5.816,7.4A1.61,1.61,0,0,1,39.573,45.7a1.694,1.694,0,0,1-1.766-.84A2.739,2.739,0,0,1,37.643,43.512ZM75.937,49.13A35.844,35.844,0,0,1,59.114,62.9a29.044,29.044,0,0,1-9.577,1.871,29.5,29.5,0,0,1-15.116-3.439A35.936,35.936,0,0,1,22.639,51.244c-.525-.689-1-1.4-1.516-2.1a.642.642,0,0,1-.033-.853A35.723,35.723,0,0,1,33.712,36.469c.125-.072.263-.118.564-.256A16.271,16.271,0,0,0,32.9,48.743a15.879,15.879,0,0,0,7.929,9.675,16.338,16.338,0,0,0,22.1-22.107,25.663,25.663,0,0,1,3.722,2.219,37.65,37.65,0,0,1,9.3,9.747A.656.656,0,0,1,75.937,49.13Z"/></svg>